<svg width="15" height="16" viewBox="0 0 15 16" fill="none" xmlns="http://www.w3.org/2000/svg">
<path d="M7.5 0.5C3.35791 0.5 0 3.85791 0 8C0 12.1421 3.35791 15.5 7.5 15.5C11.6421 15.5 15 12.1421 15 8C14.9954 3.85986 11.6401 0.504639 7.5 0.5ZM13.9865 10.6274L11.8535 10.9955C12.0977 10.1001 12.2295 9.17786 12.246 8.25H14.4938C14.4656 9.06616 14.2938 9.87097 13.9865 10.6274ZM0.506226 8.25H2.75403C2.77051 9.17786 2.90234 10.1001 3.14648 10.9955L1.01355 10.6274C0.706177 9.87097 0.534424 9.06616 0.506226 8.25ZM1.01355 5.37256L3.14648 5.00452C2.90234 5.8999 2.77051 6.82214 2.75403 7.75H0.506226C0.534424 6.93384 0.706177 6.12903 1.01355 5.37256ZM7.75 4.51404C8.64832 4.52551 9.54443 4.6073 10.4301 4.75879L11.3125 4.91101C11.5836 5.83362 11.7295 6.78845 11.7462 7.75H7.75V4.51404ZM10.5153 4.26599C9.60156 4.10986 8.67688 4.02551 7.75 4.01404V1.01404C9.18323 1.15173 10.4282 2.46399 11.1338 4.37378L10.5153 4.26599ZM7.25 4.01404C6.32312 4.02551 5.39868 4.10986 4.48499 4.26599L3.86621 4.37305C4.57178 2.46277 5.81677 1.15002 7.25 1.01294V4.01404ZM4.57019 4.75879C5.45569 4.6073 6.35168 4.52551 7.25 4.51404V7.75H3.25378C3.27051 6.78845 3.41638 5.83362 3.6875 4.91101L4.57019 4.75879ZM3.25378 8.25H7.25V11.486C6.35168 11.4745 5.45557 11.3927 4.56995 11.2412L3.6875 11.089C3.41638 10.1664 3.27051 9.21155 3.25378 8.25ZM4.48474 11.734C5.39844 11.8904 6.323 11.9751 7.25 11.9873V14.9873C5.81677 14.8495 4.57178 13.5372 3.86621 11.6274L4.48474 11.734ZM7.75 11.9873C8.67688 11.9751 9.60132 11.8904 10.515 11.734L11.1338 11.627C10.4282 13.5372 9.18323 14.85 7.75 14.9871V11.9873ZM10.4298 11.2412C9.54431 11.3927 8.64832 11.4745 7.75 11.486V8.25H11.7462C11.7295 9.21155 11.5836 10.1664 11.3125 11.089L10.4298 11.2412ZM12.246 7.75C12.2295 6.82214 12.0977 5.8999 11.8535 5.00452L13.9865 5.37256C14.2938 6.12903 14.4656 6.93384 14.4938 7.75H12.246ZM13.7335 4.82153L11.689 4.46875C11.3214 3.26965 10.6338 2.19348 9.69995 1.3562C11.4462 1.93896 12.8943 3.18298 13.7335 4.82153ZM5.30005 1.3562C4.36621 2.19348 3.67859 3.26965 3.31104 4.46875L1.26648 4.82153C2.10571 3.18298 3.55383 1.93896 5.30005 1.3562ZM1.26648 11.1785L3.31104 11.5312C3.67859 12.7303 4.36621 13.8065 5.30005 14.6438C3.55383 14.061 2.10571 12.817 1.26648 11.1785ZM9.69995 14.6438C10.6338 13.8065 11.3214 12.7303 11.689 11.5312L13.7335 11.1785C12.8943 12.817 11.4462 14.061 9.69995 14.6438Z" fill="black
"/>
</svg>
