<svg width="171" height="50" viewBox="0 0 171 50" fill="none" xmlns="http://www.w3.org/2000/svg">
<g clip-path="url(#clip0_2119_98)">
<path d="M32.6529 33.3633C27.1667 36.241 20.1161 36.938 17.8027 36.938C5.66248 36.938 0 27.3831 0 19.1097C0 10.634 5.81671 0 19.345 0C25.2719 0 29.2158 1.93345 30.3835 1.93345C30.8903 1.93345 31.3309 1.82104 31.6614 1.52878H32.4326V10.7014H31.3309C29.8327 3.6196 25.1176 1.41637 19.9619 1.41637C10.2013 1.41637 5.19979 9.66727 5.19979 18.7725C5.19979 30.3732 13.1757 35.5216 19.5653 35.5216C22.1211 35.5216 24.9414 34.9595 28.048 33.3633V26.2365C28.048 23.0216 26.9464 21.9424 23.6194 21.9424H21.5703V20.9308H36.5307V21.9424C33.7546 22.1223 32.6529 23.0665 32.6529 25.5171V33.3633Z" fill="black"/>
<path d="M46.7312 31.9019C46.7312 34.2176 47.5685 34.9595 50.3446 34.9595H52.4598V36.0386H39.3281V34.9595C42.1483 34.892 43.0517 33.723 43.0517 30.7104V17.6483L39.3281 16.2994V15.3327L45.6516 13.062H46.7532V19.0647H46.8634C49.6396 14.4334 50.3006 13.3543 52.1293 13.3543C52.7903 13.3543 52.9666 13.3992 54.0241 13.8714C54.575 14.0962 55.5664 14.321 56.9105 14.7257L55.5885 18.1205C54.7512 18.0081 53.6936 17.7158 52.6581 17.2212C51.9971 16.9064 51.3361 16.6367 50.6751 16.6367C49.6836 16.6367 49.0667 17.3111 48.5159 18.098C47.7888 19.1097 47.1939 20.0764 46.7312 20.9307V31.9019Z" fill="black"/>
<path d="M58.8061 20.3687C58.696 20.0315 58.6299 19.8516 58.6299 19.5818C58.6299 17.6034 63.2348 13.0171 66.8261 13.0171C68.5007 13.0171 71.1006 13.804 72.6429 16.0072C73.4801 17.1987 73.4801 17.9407 73.4801 20.8633V28.4398C73.4801 32.9586 73.4801 33.9928 74.9123 33.9928C75.5292 33.9928 76.2342 33.9254 77.6223 32.7563L77.9088 33.6106C74.9123 36.1061 73.37 36.7131 72.4225 36.7131C70.1531 36.7131 69.9328 34.1727 69.8667 33.2509C66.033 36.4658 64.9313 36.7131 63.4331 36.7131C60.2162 36.7131 58.2773 34.8471 58.2773 32.0818C58.2773 28.6421 61.2738 27.4505 64.8211 26.5288C65.9889 26.2365 67.8176 25.5621 69.7565 24.3705V19.9191C69.7565 18.3453 69.7565 17.4236 68.8091 16.2995C68.082 15.4002 66.9143 14.6583 65.7025 14.6583C63.8737 14.6583 62.2653 16.232 62.2653 17.4236C62.2653 17.7608 62.3314 17.9856 62.5517 18.5027L58.8061 20.3687ZM69.8006 25.5171C68.743 26.1466 67.8617 26.5288 66.5397 27.0908C63.1687 28.5072 61.8908 29.0693 61.8908 31.3849C61.8908 33.4308 63.4992 34.7122 65.1516 34.7122C66.033 34.7122 66.6939 34.42 69.8006 32.2167V25.5171Z" fill="black"/>
<path d="M89.1887 36.5332L81.1467 17.7607C80.3094 15.7823 79.6044 15.1078 78.701 14.928L76.9824 14.6357V13.624H88.2854V14.6357C84.9143 14.7481 83.8567 15.1978 85.1787 17.8506L91.0615 31.9244L96.724 18.8848C97.7155 16.5692 97.2308 14.928 93.1767 14.6357V13.624H102.827V14.6357C100.712 15.0404 99.5002 16.2769 98.4426 18.7724L90.7971 36.5332H89.1887Z" fill="black"/>
<path d="M108.16 17.9405C108.16 15.9621 107.102 14.7256 104.172 14.7256V13.6465H116.488V14.7256C113.117 14.7256 111.883 15.8497 111.883 18.8623V30.2382C111.883 32.4414 112.17 32.7337 113.602 33.0035L116.202 33.5206V34.4199L108.997 36.9603H108.16V17.9405ZM110.429 49.6627C109.107 49.6627 107.984 48.6959 107.984 47.5044C107.984 46.3129 109.085 45.3461 110.429 45.3461C111.751 45.3461 112.809 46.3129 112.809 47.5044C112.809 48.6959 111.751 49.6627 110.429 49.6627Z" fill="black"/>
<path d="M133.366 13.6241L132.484 16.1196H125.434V29.2941C125.434 32.8688 127.923 34.0378 129.091 34.0378C130.303 34.0378 131.427 33.0711 132.462 31.2051L133.344 32.0594C132.022 35.0045 129.862 36.6907 127.307 36.6907C124.046 36.6907 121.71 33.9254 121.71 30.1259V16.1196H119.154V15.2204C121.314 14.1412 123.208 11.5333 124.486 8.02612H125.434V13.6241H133.366Z" fill="black"/>
<path d="M136.251 20.3687C136.141 20.0315 136.075 19.8516 136.075 19.5818C136.075 17.6034 140.68 13.0171 144.271 13.0171C145.946 13.0171 148.546 13.804 150.088 16.0072C150.925 17.1987 150.925 17.9407 150.925 20.8633V28.4398C150.925 32.9586 150.925 33.9928 152.358 33.9928C152.974 33.9928 153.68 33.9254 155.068 32.7563L155.354 33.6106C152.358 36.1061 150.815 36.7131 149.868 36.7131C147.598 36.7131 147.378 34.1727 147.312 33.2509C143.478 36.4658 142.377 36.7131 140.878 36.7131C137.662 36.7131 135.723 34.8471 135.723 32.0818C135.723 28.6421 138.719 27.4505 142.266 26.5288C143.434 26.2365 145.263 25.5621 147.202 24.3705V19.9191C147.202 18.3453 147.202 17.4236 146.254 16.2995C145.527 15.4002 144.36 14.6583 143.148 14.6583C141.319 14.6583 139.711 16.232 139.711 17.4236C139.711 17.7608 139.777 17.9856 139.997 18.5027L136.251 20.3687ZM147.224 25.5171C146.166 26.1466 145.285 26.5288 143.963 27.0908C140.592 28.5072 139.314 29.0693 139.314 31.3849C139.314 33.4308 140.922 34.7122 142.575 34.7122C143.456 34.7122 144.117 34.42 147.224 32.2167V25.5171Z" fill="black"/>
<path d="M158.374 30.3282C159.035 33.723 161.15 35.6565 163.64 35.6565C165.865 35.6565 167.584 33.9479 167.584 31.9245C167.584 30.7329 167.297 29.991 165.799 28.4622C161.855 24.438 157.493 24.0558 157.493 19.357C157.493 15.625 160.379 13.0171 164.587 13.0171C166.086 13.0171 167.628 13.3543 169.016 13.9164L169.126 19.0648H168.179C167.782 16.1871 165.953 14.366 163.75 14.366C161.921 14.366 160.379 15.67 160.379 17.536C160.379 22.5045 170.69 23.3588 170.69 30.2608C170.69 33.9479 167.694 36.7131 163.816 36.7131C162.759 36.7131 161.987 36.5333 161.371 36.3085C160.754 36.1286 160.313 35.9712 159.872 35.9712C159.542 35.9712 159.211 36.1961 158.925 36.6457H158.088L157.471 30.3058H158.374V30.3282Z" fill="black"/>
<path d="M59.7976 49.6853C59.7976 49.7302 59.7976 49.7752 59.7976 49.7977C59.7976 49.8202 59.7756 49.8651 59.7756 49.8651C59.7756 49.8876 59.7535 49.9101 59.7315 49.9101C59.7095 49.9101 59.7095 49.9326 59.6874 49.9326H57.7926C57.7485 49.9326 57.6824 49.9101 57.6384 49.8876C57.5943 49.8426 57.5723 49.7977 57.5723 49.7078V45.6385C57.5723 45.616 57.5723 45.5935 57.5943 45.5935C57.6163 45.5935 57.6163 45.5711 57.6384 45.5711C57.6604 45.5711 57.6824 45.5486 57.7265 45.5486C57.7706 45.5486 57.8146 45.5486 57.8587 45.5486C57.9248 45.5486 57.9689 45.5486 57.9909 45.5486C58.035 45.5486 58.057 45.5711 58.079 45.5711C58.1011 45.5711 58.1231 45.5935 58.1231 45.5935C58.1231 45.5935 58.1451 45.616 58.1451 45.6385V49.438H59.6874C59.7095 49.438 59.7315 49.438 59.7315 49.4605C59.7535 49.4605 59.7535 49.4829 59.7756 49.5054C59.7756 49.5279 59.7976 49.5504 59.7976 49.5729C59.7976 49.5953 59.7976 49.6403 59.7976 49.6853Z" fill="black"/>
<path d="M64.2917 49.7303C64.3137 49.7752 64.3137 49.8202 64.3137 49.8427C64.3137 49.8652 64.3137 49.8877 64.2917 49.9101C64.2697 49.9326 64.2476 49.9326 64.2036 49.9326C64.1595 49.9326 64.1154 49.9326 64.0493 49.9326C63.9832 49.9326 63.9171 49.9326 63.8951 49.9326C63.851 49.9326 63.829 49.9326 63.807 49.9101C63.7849 49.8877 63.7629 49.8877 63.7629 49.8877C63.7629 49.8652 63.7409 49.8652 63.7409 49.8427L63.3663 48.7636H61.5816L61.2291 49.8202C61.2291 49.8427 61.2071 49.8652 61.2071 49.8652C61.2071 49.8877 61.185 49.8877 61.163 49.9101C61.141 49.9101 61.1189 49.9326 61.0749 49.9326C61.0308 49.9326 60.9867 49.9326 60.9206 49.9326C60.8545 49.9326 60.8105 49.9326 60.7664 49.9326C60.7223 49.9326 60.7003 49.9101 60.6783 49.9101C60.6563 49.8877 60.6562 49.8652 60.6562 49.8427C60.6562 49.8202 60.6563 49.7752 60.6783 49.7303L62.1325 45.6386C62.1325 45.6161 62.1545 45.5936 62.1765 45.5711C62.1986 45.5486 62.2206 45.5486 62.2426 45.5261C62.2647 45.5037 62.3087 45.5037 62.3528 45.5037C62.3969 45.5037 62.4409 45.5037 62.507 45.5037C62.5731 45.5037 62.6392 45.5037 62.6833 45.5037C62.7274 45.5037 62.7714 45.5037 62.7935 45.5261C62.8155 45.5486 62.8375 45.5486 62.8595 45.5711C62.8816 45.5936 62.8816 45.6161 62.9036 45.6386L64.2917 49.7303ZM62.4409 46.1332L61.6918 48.3139H63.19L62.4409 46.1332Z" fill="black"/>
<path d="M69.4928 49.7977C69.4928 49.8202 69.4707 49.8651 69.4487 49.8651C69.4267 49.8876 69.4046 49.9101 69.3826 49.9101C69.3606 49.9101 69.3165 49.9326 69.2724 49.9326C69.2284 49.9326 69.1623 49.9326 69.0962 49.9326C69.0301 49.9326 68.964 49.9326 68.9199 49.9326C68.8758 49.9326 68.8318 49.9101 68.8097 49.9101C68.7877 49.9101 68.7657 49.8876 68.7437 49.8651C68.7216 49.8426 68.7216 49.8202 68.6996 49.7977L67.7962 46.4703L66.959 49.7977C66.959 49.8202 66.937 49.8651 66.9149 49.8651C66.8929 49.8876 66.8708 49.9101 66.8488 49.9101C66.8268 49.9101 66.7827 49.9326 66.7387 49.9326C66.6946 49.9326 66.6285 49.9326 66.5624 49.9326C66.4963 49.9326 66.4302 49.9326 66.3861 49.9326C66.3421 49.9326 66.298 49.9101 66.276 49.9101C66.2539 49.9101 66.2319 49.8876 66.2099 49.8651C66.1878 49.8426 66.1878 49.8202 66.1658 49.7977L65.0201 45.7509C64.998 45.706 64.998 45.661 64.998 45.6385C64.998 45.616 64.998 45.5935 65.0201 45.5711C65.0421 45.5486 65.0641 45.5486 65.1082 45.5486C65.1523 45.5486 65.1963 45.5486 65.2845 45.5486C65.3506 45.5486 65.4167 45.5486 65.4387 45.5486C65.4828 45.5486 65.5048 45.5486 65.5268 45.5711C65.5489 45.5935 65.5709 45.5935 65.5709 45.616C65.5709 45.6385 65.5929 45.661 65.5929 45.6835L66.5624 49.3705L67.4878 45.706C67.4878 45.6835 67.5098 45.661 67.5098 45.6385C67.5098 45.616 67.5318 45.616 67.5539 45.5935C67.5759 45.5935 67.5979 45.5711 67.642 45.5711C67.6861 45.5711 67.7301 45.5711 67.7962 45.5711C67.8623 45.5711 67.9064 45.5711 67.9505 45.5711C67.9945 45.5711 68.0166 45.5711 68.0386 45.5935C68.0606 45.5935 68.0827 45.616 68.0827 45.6385C68.0827 45.661 68.1047 45.6835 68.1047 45.706L69.0962 49.3705L70.0436 45.6835C70.0436 45.661 70.0656 45.6385 70.0656 45.616C70.0656 45.5935 70.0877 45.5935 70.1097 45.5711C70.1317 45.5711 70.1538 45.5486 70.1978 45.5486C70.2419 45.5486 70.286 45.5486 70.3521 45.5486C70.4182 45.5486 70.4622 45.5486 70.5063 45.5486C70.5504 45.5486 70.5724 45.5711 70.5944 45.5711C70.6165 45.5935 70.6165 45.616 70.6165 45.6385C70.6165 45.661 70.6165 45.706 70.5944 45.7509L69.4928 49.7977Z" fill="black"/>
<path d="M77.093 49.3031C77.093 49.3481 77.093 49.3706 77.093 49.3931C77.093 49.4156 77.093 49.438 77.071 49.4605C77.071 49.483 77.0489 49.5055 77.0489 49.5055C77.0489 49.528 77.0269 49.5504 77.0049 49.5729C76.9828 49.5954 76.9388 49.6404 76.8727 49.6853C76.8066 49.7303 76.7184 49.7753 76.6083 49.8202C76.4981 49.8652 76.3879 49.9102 76.2557 49.9326C76.1235 49.9551 75.9693 49.9776 75.8151 49.9776C75.5286 49.9776 75.2863 49.9326 75.066 49.8427C74.8456 49.7528 74.6473 49.6179 74.4931 49.4156C74.3389 49.2357 74.2067 49.0109 74.1185 48.7186C74.0304 48.4488 73.9863 48.1341 73.9863 47.7744C73.9863 47.4147 74.0304 47.0774 74.1185 46.8076C74.2067 46.5379 74.3389 46.2906 74.5151 46.0882C74.6914 45.8859 74.8897 45.7285 75.11 45.6386C75.3524 45.5262 75.5947 45.4812 75.8812 45.4812C76.0134 45.4812 76.1235 45.5037 76.2337 45.5262C76.3439 45.5486 76.454 45.5711 76.5642 45.6161C76.6744 45.6611 76.7625 45.6835 76.8286 45.751C76.9167 45.7959 76.9608 45.8409 76.9828 45.8634C77.0049 45.8859 77.0269 45.9084 77.0489 45.9308C77.0489 45.9533 77.071 45.9758 77.071 45.9758C77.071 45.9758 77.071 46.0208 77.093 46.0433C77.093 46.0657 77.093 46.1107 77.093 46.1557C77.093 46.2006 77.093 46.2456 77.093 46.2681C77.093 46.2906 77.071 46.3355 77.071 46.358C77.071 46.3805 77.0489 46.403 77.0489 46.403C77.0269 46.403 77.0269 46.4254 77.0049 46.4254C76.9828 46.4254 76.9388 46.403 76.8727 46.358C76.8066 46.313 76.7405 46.2681 76.6523 46.2231C76.5642 46.1781 76.454 46.1107 76.3218 46.0882C76.1896 46.0433 76.0354 46.0208 75.8591 46.0208C75.6608 46.0208 75.4846 46.0657 75.3303 46.1332C75.1761 46.2006 75.0439 46.3355 74.9338 46.4704C74.8236 46.6053 74.7355 46.8076 74.6694 47.0325C74.6033 47.2573 74.5812 47.5046 74.5812 47.7744C74.5812 48.0442 74.6033 48.2915 74.6694 48.5163C74.7355 48.7411 74.8236 48.8985 74.9338 49.0558C75.0439 49.1907 75.1761 49.3031 75.3303 49.3706C75.4846 49.438 75.6829 49.483 75.8812 49.483C76.0574 49.483 76.2117 49.4605 76.3218 49.4156C76.454 49.3706 76.5642 49.3256 76.6523 49.2807C76.7405 49.2357 76.8066 49.1683 76.8727 49.1458C76.9388 49.1008 76.9828 49.0783 77.0049 49.0783C77.0269 49.0783 77.0269 49.0783 77.0489 49.0783C77.071 49.0783 77.071 49.1008 77.071 49.1233C77.071 49.1458 77.093 49.1683 77.093 49.2132C77.093 49.2132 77.093 49.2582 77.093 49.3031Z" fill="black"/>
<path d="M82.0282 47.6844C82.0282 48.0442 81.9841 48.3589 81.896 48.6512C81.8079 48.9434 81.6977 49.1683 81.5214 49.3706C81.3452 49.5729 81.1469 49.7303 80.9045 49.8427C80.6622 49.9551 80.3757 50.0001 80.0452 50.0001C79.7147 50.0001 79.4503 49.9551 79.208 49.8427C78.9656 49.7528 78.7673 49.5954 78.6131 49.4156C78.4588 49.2357 78.3487 48.9884 78.2606 48.7186C78.1945 48.4488 78.1504 48.1116 78.1504 47.7519C78.1504 47.4147 78.1945 47.0999 78.2826 46.8076C78.3707 46.5154 78.4809 46.2906 78.6571 46.0882C78.8334 45.8859 79.0317 45.7285 79.2741 45.6386C79.5164 45.5262 79.8029 45.4812 80.1334 45.4812C80.4418 45.4812 80.7282 45.5262 80.9706 45.6161C81.213 45.706 81.4113 45.8634 81.5655 46.0433C81.7197 46.2231 81.8299 46.4704 81.918 46.7402C81.9841 47.01 82.0282 47.3247 82.0282 47.6844ZM81.4333 47.7294C81.4333 47.4821 81.4113 47.2573 81.3672 47.0325C81.3231 46.8076 81.257 46.6278 81.1469 46.4704C81.0367 46.313 80.9045 46.2006 80.7503 46.1107C80.574 46.0208 80.3757 45.9758 80.1334 45.9758C79.891 45.9758 79.6707 46.0208 79.5164 46.1107C79.3622 46.2006 79.208 46.3355 79.0978 46.4929C78.9876 46.6503 78.9215 46.8301 78.8775 47.0549C78.8334 47.2798 78.8114 47.4821 78.8114 47.7294C78.8114 47.9767 78.8334 48.224 78.8775 48.4488C78.9215 48.6736 78.9876 48.8535 79.0978 49.0109C79.208 49.1683 79.3402 49.2807 79.4944 49.3706C79.6707 49.4605 79.869 49.5055 80.1334 49.5055C80.3757 49.5055 80.5961 49.4605 80.7723 49.3706C80.9486 49.2807 81.0808 49.1458 81.1909 48.9884C81.3011 48.831 81.3672 48.6287 81.4113 48.4263C81.4113 48.179 81.4333 47.9542 81.4333 47.7294Z" fill="black"/>
<path d="M88.2427 49.8427C88.2427 49.8652 88.2427 49.8876 88.2207 49.8876C88.2207 49.9101 88.1987 49.9101 88.1766 49.9101C88.1546 49.9101 88.1326 49.9326 88.0885 49.9326C88.0444 49.9326 88.0004 49.9326 87.9563 49.9326C87.9122 49.9326 87.8682 49.9326 87.8241 49.9326C87.78 49.9326 87.758 49.9101 87.736 49.9101C87.7139 49.9101 87.6919 49.8876 87.6919 49.8876C87.6919 49.8652 87.6699 49.8652 87.6699 49.8427V46.0207L86.1496 49.8652C86.1496 49.8876 86.1275 49.8876 86.1275 49.9101C86.1055 49.9326 86.1055 49.9326 86.0835 49.9326C86.0615 49.9326 86.0394 49.9551 85.9953 49.9551C85.9733 49.9551 85.9292 49.9551 85.8852 49.9551C85.8411 49.9551 85.7971 49.9551 85.775 49.9551C85.731 49.9551 85.7089 49.9551 85.6869 49.9326C85.6649 49.9101 85.6428 49.9101 85.6428 49.9101C85.6208 49.9101 85.6208 49.8876 85.6208 49.8652L84.1666 46.0207V49.8427C84.1666 49.8652 84.1666 49.8876 84.1446 49.8876C84.1446 49.9101 84.1225 49.9101 84.1005 49.9101C84.0785 49.9101 84.0564 49.9326 84.0124 49.9326C83.9683 49.9326 83.9242 49.9326 83.8802 49.9326C83.8361 49.9326 83.77 49.9326 83.748 49.9326C83.726 49.9326 83.6819 49.9101 83.6599 49.9101C83.6378 49.9101 83.6158 49.8876 83.6158 49.8876C83.6158 49.8652 83.5938 49.8652 83.5938 49.8427V45.7959C83.5938 45.706 83.6158 45.6385 83.6599 45.5936C83.7039 45.5486 83.77 45.5261 83.8361 45.5261H84.1886C84.2547 45.5261 84.3208 45.5261 84.3869 45.5486C84.431 45.5711 84.4971 45.5936 84.5191 45.616C84.5632 45.6385 84.5852 45.6835 84.6293 45.7285C84.6513 45.7734 84.6734 45.8184 84.6954 45.8858L85.9293 49.0783H85.9513L87.2292 45.9083C87.2512 45.8409 87.2733 45.7734 87.3173 45.7285C87.3394 45.6835 87.3834 45.6385 87.4055 45.616C87.4495 45.5936 87.4716 45.5711 87.5156 45.5486C87.5597 45.5261 87.6038 45.5261 87.6699 45.5261H88.0444C88.0885 45.5261 88.1105 45.5261 88.1326 45.5486C88.1546 45.5486 88.1987 45.5711 88.2207 45.5936C88.2427 45.6161 88.2648 45.6385 88.2648 45.6835C88.2868 45.706 88.2868 45.7509 88.2868 45.7959V49.8427H88.2427Z" fill="black"/>
<path d="M92.6714 46.8301C92.6714 47.0549 92.6273 47.2572 92.5612 47.4146C92.4951 47.572 92.3849 47.7518 92.2527 47.8643C92.1205 47.9991 91.9663 48.0891 91.768 48.1565C91.5697 48.224 91.3494 48.2689 91.085 48.2689H90.6002V49.8427C90.6002 49.8652 90.6002 49.8876 90.5782 49.8876C90.5782 49.9101 90.5561 49.9101 90.5341 49.9101C90.5121 49.9101 90.49 49.9326 90.446 49.9326C90.4019 49.9326 90.3578 49.9326 90.3138 49.9326C90.2697 49.9326 90.2036 49.9326 90.1816 49.9326C90.1595 49.9326 90.1155 49.9101 90.0934 49.9101C90.0714 49.9101 90.0494 49.8876 90.0494 49.8876C90.0494 49.8652 90.0273 49.8652 90.0273 49.8427V45.7959C90.0273 45.706 90.0494 45.6385 90.0934 45.5936C90.1375 45.5486 90.1816 45.5261 90.2477 45.5261H91.1731C91.2612 45.5261 91.3494 45.5261 91.4375 45.5486C91.5256 45.5711 91.6138 45.5711 91.746 45.5936C91.8561 45.6161 91.9883 45.661 92.0985 45.7285C92.2087 45.7959 92.3188 45.8858 92.407 45.9982C92.4951 46.1107 92.5612 46.2231 92.6053 46.358C92.6493 46.5153 92.6714 46.6502 92.6714 46.8301ZM92.0544 46.875C92.0544 46.6952 92.0324 46.5378 91.9663 46.4254C91.9002 46.313 91.8121 46.2231 91.7239 46.1556C91.6358 46.0882 91.5256 46.0657 91.4155 46.0432C91.3053 46.0207 91.2172 46.0207 91.107 46.0207H90.5782V47.7743H91.085C91.2612 47.7743 91.3934 47.7518 91.5256 47.7069C91.6358 47.6619 91.746 47.5945 91.8121 47.527C91.8782 47.4596 91.9443 47.3472 91.9883 47.2348C92.0324 47.1223 92.0544 47.0099 92.0544 46.875Z" fill="black"/>
<path d="M96.8796 49.7303C96.9016 49.7752 96.9016 49.8202 96.9016 49.8427C96.9016 49.8652 96.9016 49.8877 96.8796 49.9101C96.8576 49.9326 96.8355 49.9326 96.7915 49.9326C96.7474 49.9326 96.7033 49.9326 96.6372 49.9326C96.5711 49.9326 96.505 49.9326 96.483 49.9326C96.4389 49.9326 96.4169 49.9326 96.3949 49.9101C96.3728 49.8877 96.3508 49.8877 96.3508 49.8877C96.3508 49.8652 96.3288 49.8652 96.3288 49.8427L95.9542 48.7636H94.1695L93.817 49.8202C93.817 49.8427 93.795 49.8652 93.795 49.8652C93.795 49.8877 93.7729 49.8877 93.7509 49.9101C93.7289 49.9101 93.7068 49.9326 93.6628 49.9326C93.6187 49.9326 93.5746 49.9326 93.5085 49.9326C93.4424 49.9326 93.3984 49.9326 93.3543 49.9326C93.3102 49.9326 93.2882 49.9101 93.2662 49.9101C93.2441 49.8877 93.2441 49.8652 93.2441 49.8427C93.2441 49.8202 93.2441 49.7752 93.2662 49.7303L94.7203 45.6386C94.7203 45.6161 94.7424 45.5936 94.7644 45.5711C94.7865 45.5486 94.8085 45.5486 94.8305 45.5261C94.8525 45.5037 94.8966 45.5037 94.9407 45.5037C94.9847 45.5037 95.0288 45.5037 95.0949 45.5037C95.161 45.5037 95.2271 45.5037 95.2712 45.5037C95.3152 45.5037 95.3593 45.5037 95.3813 45.5261C95.4034 45.5486 95.4254 45.5486 95.4474 45.5711C95.4695 45.5936 95.4695 45.6161 95.4915 45.6386L96.8796 49.7303ZM95.0288 46.1332L94.2797 48.3139H95.7779L95.0288 46.1332Z" fill="black"/>
<path d="M101.484 49.6853C101.484 49.7303 101.484 49.7752 101.462 49.7977C101.44 49.8202 101.418 49.8652 101.396 49.8652C101.374 49.8876 101.352 49.9101 101.308 49.9101C101.286 49.9101 101.242 49.9326 101.22 49.9326H101.021C100.955 49.9326 100.911 49.9326 100.867 49.9101C100.823 49.8876 100.779 49.8652 100.735 49.8427C100.691 49.8202 100.647 49.7752 100.625 49.7078C100.581 49.6403 100.537 49.5729 100.493 49.483L99.1706 46.9875C99.1045 46.8526 99.0384 46.7177 98.9723 46.5828C98.9062 46.4479 98.8401 46.313 98.774 46.1781C98.774 46.3355 98.774 46.5153 98.774 46.6727C98.774 46.8526 98.774 47.0099 98.774 47.1898V49.8427C98.774 49.8652 98.774 49.8652 98.752 49.8876C98.752 49.9101 98.73 49.9101 98.7079 49.9326C98.6859 49.9326 98.6639 49.9551 98.6198 49.9551C98.5757 49.9551 98.5317 49.9551 98.4876 49.9551C98.4435 49.9551 98.3774 49.9551 98.3554 49.9551C98.3334 49.9551 98.2893 49.9326 98.2673 49.9326C98.2452 49.9326 98.2232 49.9101 98.2232 49.8876C98.2232 49.8652 98.2012 49.8652 98.2012 49.8427V45.7959C98.2012 45.706 98.2232 45.6385 98.2673 45.5936C98.3113 45.5486 98.3774 45.5261 98.4215 45.5261H98.7079C98.774 45.5261 98.8401 45.5261 98.8842 45.5486C98.9282 45.5486 98.9723 45.5711 98.9943 45.5936C99.0164 45.6161 99.0604 45.661 99.1045 45.706C99.1486 45.7509 99.1706 45.8184 99.2147 45.8858L100.228 47.8193C100.294 47.9317 100.36 48.0441 100.404 48.1565C100.449 48.2689 100.515 48.3813 100.581 48.4938C100.647 48.6062 100.691 48.7186 100.735 48.8085C100.779 48.9209 100.845 49.0108 100.889 49.1232C100.889 48.9434 100.889 48.7635 100.889 48.5612C100.889 48.3589 100.889 48.179 100.889 47.9991V45.6385C100.889 45.6161 100.889 45.6161 100.911 45.5936C100.911 45.5711 100.933 45.5711 100.955 45.5486C100.977 45.5486 100.999 45.5261 101.043 45.5261C101.087 45.5261 101.132 45.5261 101.176 45.5261C101.22 45.5261 101.264 45.5261 101.308 45.5261C101.352 45.5261 101.374 45.5486 101.396 45.5486C101.418 45.5486 101.44 45.5711 101.44 45.5936C101.44 45.6161 101.462 45.6161 101.462 45.6385V49.6853H101.484Z" fill="black"/>
<path d="M104.635 48.2239V49.8426C104.635 49.8651 104.635 49.8876 104.613 49.8876C104.613 49.9101 104.591 49.9101 104.569 49.9101C104.547 49.9101 104.525 49.9326 104.481 49.9326C104.437 49.9326 104.393 49.9326 104.349 49.9326C104.283 49.9326 104.239 49.9326 104.217 49.9326C104.195 49.9326 104.151 49.9101 104.129 49.9101C104.107 49.9101 104.085 49.8876 104.085 49.8876C104.085 49.8651 104.063 49.8651 104.063 49.8426V48.2239L102.851 45.7509C102.829 45.706 102.807 45.661 102.807 45.6385C102.807 45.616 102.807 45.5935 102.829 45.5711C102.851 45.5486 102.873 45.5486 102.917 45.5486C102.961 45.5486 103.027 45.5486 103.093 45.5486C103.159 45.5486 103.203 45.5486 103.247 45.5486C103.291 45.5486 103.313 45.5486 103.335 45.5711C103.357 45.5711 103.379 45.5935 103.379 45.616C103.402 45.6385 103.402 45.6385 103.424 45.661L104.018 46.92C104.085 47.0324 104.129 47.1673 104.195 47.3022C104.261 47.4371 104.305 47.572 104.371 47.7069C104.415 47.572 104.481 47.4596 104.525 47.3247C104.569 47.1898 104.635 47.0774 104.679 46.9425L105.274 45.6835C105.274 45.661 105.296 45.6385 105.296 45.616C105.296 45.5935 105.318 45.5935 105.34 45.5711C105.362 45.5486 105.384 45.5486 105.429 45.5486C105.473 45.5486 105.517 45.5486 105.561 45.5486C105.649 45.5486 105.693 45.5486 105.759 45.5486C105.803 45.5486 105.825 45.5711 105.847 45.5711C105.869 45.5935 105.869 45.616 105.869 45.6385C105.869 45.661 105.847 45.706 105.825 45.7509L104.635 48.2239Z" fill="black"/>
<path d="M54.8842 47.7292H0V47.9541H54.8842V47.7292Z" fill="black"/>
</g>
<defs>
<clipPath id="clip0_2119_98">
<rect width="170.69" height="50" fill="black"/>
</clipPath>
</defs>
</svg>
